<?xml version="1.0" encoding="UTF-8"?>
<svg id="Layer_1" xmlns="http://www.w3.org/2000/svg" version="1.1" viewBox="0 0 181.4 37">
  <!-- Generator: Adobe Illustrator 29.7.1, SVG Export Plug-In . SVG Version: 2.1.1 Build 8)  -->
  <defs>
    <style>
      .st0 {
        fill: #fff;
      }

      .st1 {
        fill: #071d49;
      }
    </style>
  </defs>
  <g>
    <g>
      <polygon points="71.9 16 69.9 16 69.9 29.3 77.5 29.3 77.5 27.5 71.9 27.5 71.9 16"/>
      <path d="M90.8,22.7c0-.9.2-1.8.5-2.6.1-.1.1-.2.2-.4-.3-.7-.7-1.3-1.3-1.8-.6-.6-1.3-1.1-2.1-1.4-.8-.3-1.7-.5-2.6-.5s-1.8.2-2.6.5c-.8.3-1.5.8-2.1,1.4s-1.1,1.3-1.4,2.1c-.3.8-.5,1.7-.5,2.6s.2,1.8.5,2.6c.3.8.8,1.5,1.4,2.1s1.3,1.1,2.1,1.4c.8.3,1.7.5,2.6.5s1.8-.2,2.6-.5c.8-.3,1.5-.8,2.1-1.4.5-.5.9-1.1,1.3-1.8-.1-.1-.1-.2-.2-.4-.4-.6-.5-1.5-.5-2.4ZM89.8,24.6c-.2.6-.6,1.1-1,1.5s-.9.8-1.5,1-1.2.4-1.8.4c-.7,0-1.3-.1-1.9-.4-.6-.2-1.1-.6-1.5-1s-.8-1-1-1.5c-.2-.6-.4-1.2-.4-1.9s.1-1.3.4-1.9c.2-.6.6-1.1,1-1.5s.9-.8,1.5-1,1.2-.4,1.9-.4,1.3.1,1.9.4c.6.2,1.1.6,1.5,1s.8,1,1,1.5c.2.6.4,1.2.4,1.9-.2.7-.3,1.3-.5,1.9Z"/>
      <path d="M97.5,23.9h4.3c-.1.7-.3,1.3-.7,1.9-.4.6-.9,1-1.5,1.3s-1.3.5-2.1.5c-.7,0-1.3-.1-1.9-.4-.6-.2-1.1-.6-1.5-1s-.8-1-1-1.6-.4-1.2-.4-1.9.1-1.3.4-1.9c.2-.6.6-1.1,1-1.5s.9-.8,1.5-1,1.2-.4,1.9-.4,1.5.1,2.1.4c.7.3,1.3.7,1.7,1.3l1.3-1.3c-.6-.7-1.4-1.3-2.3-1.7-.9-.4-1.9-.6-2.9-.6-.9,0-1.8.2-2.6.5-.8.3-1.5.8-2.1,1.4-.5.5-.9,1.1-1.3,1.8.1.1.1.2.2.3.3.8.5,1.7.5,2.6s-.2,1.8-.5,2.6c0,.1-.1.2-.2.3.3.7.7,1.2,1.3,1.8.6.6,1.3,1.1,2.1,1.4s1.7.5,2.6.5,1.7-.2,2.5-.5,1.4-.8,2-1.4,1-1.3,1.3-2.1c.3-.8.5-1.6.5-2.5v-.7h-6.3v1.9h.1Z"/>
      <path d="M92.1,22.7c0-1-.2-1.9-.5-2.7-.1-.1-.1-.2-.2-.4-.1.1-.1.2-.2.4-.3.8-.5,1.7-.5,2.7,0,.9.2,1.8.5,2.7.1.1.1.2.2.4.1-.1.1-.2.2-.3.4-1,.5-1.9.5-2.8Z"/>
      <rect x="106.1" y="16" width="2" height="13.3"/>
      <path d="M116.3,21.8l-2.1-.3c-.8-.1-1.4-.3-1.8-.6-.4-.3-.5-.7-.5-1.2,0-.4.1-.7.3-1,.2-.3.6-.5,1-.7s.9-.2,1.5-.2c1.4,0,2.8.5,4.2,1.6l1.1-1.5c-.7-.6-1.5-1-2.4-1.3s-1.8-.5-2.8-.5c-.9,0-1.8.2-2.5.5s-1.3.7-1.7,1.3c-.4.6-.6,1.2-.6,2,0,.9.3,1.7.9,2.2.6.6,1.5.9,2.7,1.1l2.1.4c.9.1,1.6.4,2,.7.4.3.6.8.6,1.3,0,.4-.1.8-.4,1.1-.3.3-.6.6-1.1.8-.5.2-1,.3-1.6.3-.8,0-1.6-.2-2.3-.5-.7-.3-1.4-.8-2.2-1.5l-1.2,1.4c.7.8,1.6,1.3,2.5,1.7,1,.4,2,.6,3,.6s1.9-.2,2.7-.5c.8-.3,1.4-.8,1.8-1.4s.6-1.3.6-2.1c0-1-.3-1.8-1-2.4-.5-.7-1.5-1.1-2.8-1.3Z"/>
      <polygon points="121.5 17.8 126.2 17.8 126.2 29.3 128.2 29.3 128.2 17.8 132.9 17.8 132.9 16 121.5 16 121.5 17.8"/>
      <rect x="134.3" y="16" width="2" height="13.3"/>
      <path d="M141,19.2c.4-.4.9-.8,1.5-1s1.2-.4,1.9-.4,1.5.2,2.2.5,1.3.7,1.7,1.3l1.3-1.3c-.4-.5-.9-.9-1.4-1.2-.5-.3-1.1-.6-1.8-.8-.6-.2-1.3-.3-2-.3-.9,0-1.8.2-2.7.5-.8.3-1.5.8-2.2,1.4-.6.6-1.1,1.3-1.4,2.1-.3.8-.5,1.7-.5,2.6s.2,1.8.5,2.6c.3.8.8,1.5,1.4,2.1.6.6,1.3,1.1,2.2,1.4.8.3,1.7.5,2.7.5.7,0,1.3-.1,1.9-.3.6-.2,1.2-.4,1.8-.8.5-.3,1-.7,1.4-1.2l-1.3-1.3c-.5.5-1,1-1.7,1.3s-1.4.5-2.1.5-1.3-.1-1.9-.4c-.6-.2-1.1-.6-1.5-1s-.8-1-1-1.5c-.2-.6-.4-1.2-.4-1.9s.1-1.3.4-1.9c.2-.5.5-1,1-1.5Z"/>
      <path d="M160.7,23c-.6-.6-1.6-1-3-1.2l-2.1-.3c-.8-.1-1.4-.3-1.8-.6-.4-.3-.5-.7-.5-1.2,0-.4.1-.7.3-1s.6-.5,1-.7.9-.2,1.5-.2c1.4,0,2.8.5,4.2,1.6l1.1-1.5c-.7-.6-1.5-1-2.4-1.3s-1.8-.5-2.8-.5c-.9,0-1.8.2-2.5.5s-1.3.7-1.7,1.3c-.4.6-.6,1.2-.6,2,0,.9.3,1.7.9,2.2.6.6,1.5.9,2.7,1.1l2.1.4c.9.1,1.6.4,2,.7.4.3.6.8.6,1.3,0,.4-.1.8-.4,1.1-.3.3-.6.6-1.1.8-.5.2-1,.3-1.6.3-.8,0-1.6-.2-2.3-.5s-1.4-.8-2.2-1.5l-1.1,1.2c.7.8,1.6,1.3,2.5,1.7,1,.4,2,.6,3,.6s1.9-.2,2.7-.5,1.4-.8,1.8-1.4c.4-.6.6-1.3.6-2.1.1-1-.3-1.8-.9-2.3Z"/>
    </g>
    <g>
      <path d="M72.5,8.3c1.2,0,2,.7,2,1.8,0,.7-.5,1.2-.9,1.4.5.2,1,.7,1,1.6,0,1.2-.8,1.9-2,1.9h-2.7v-6.7h2.6ZM70.9,9.3v1.9h1.5c.7,0,1.1-.3,1.1-1,0-.6-.4-1-1.1-1h-1.5v.1ZM70.9,12.1v2h1.6c.7,0,1.1-.4,1.1-1s-.4-1-1.1-1h-1.6Z"/>
      <path d="M80.5,15.1h-.9l-3.1-4.7v4.7h-1v-6.8h.9l3.1,4.7v-4.7h1v6.8Z"/>
      <path d="M91.4,9.3h-3.3v2h2.9v.9h-2.8v2.8h-1v-6.7h4.3v1h-.1Z"/>
      <path d="M84.4,11.2l-1.1-.2c-.4-.1-.7-.2-.9-.3-.2-.1-.3-.3-.3-.6,0-.2.1-.4.2-.5s.3-.3.5-.3c.2-.1.5-.1.8-.1.7,0,1.5.3,2.2.8l.6-.8c-.4-.3-.8-.5-1.3-.7s-.9-.2-1.4-.2-.9.1-1.3.2-.7.4-.9.7c-.2.3-.3.6-.3,1,0,.5.2.9.5,1.1.3.3.8.5,1.4.6l1.1.2c.5.1.8.2,1,.4s.3.4.3.7c0,.2-.1.4-.2.6-.1.2-.3.3-.6.4-.2.1-.5.1-.8.1-.4,0-.8-.1-1.2-.3-.4-.2-.7-.4-1.1-.8l-.6.7c.4.4.8.7,1.3.9s1,.3,1.5.3,1-.1,1.4-.3.7-.4.9-.7c.2-.3.3-.7.3-1.1,0-.5-.2-.9-.5-1.2-.3-.3-.8-.5-1.5-.6Z"/>
    </g>
  </g>
  <g>
    <path d="M29.8,21.6c.5,2.8,1.6,5.4,3.2,7.6-3.2,4.4-8.4,7.2-14.3,7.2-9.8,0-17.7-7.9-17.7-17.7S8.9,1,18.7,1c5.8,0,11,2.8,14.3,7.2-1.6,2.2-2.8,4.9-3.2,7.7h-4.2c-1.1-2.7-3.7-4.6-6.8-4.6-4.1,0-7.4,3.3-7.4,7.4s3.3,7.4,7.4,7.4c3,0,5.6-1.8,6.7-4.4h4.3v-.1Z"/>
    <path d="M64.9,18.7c0,9.8-7.9,17.7-17.7,17.7-5.9,0-11-2.8-14.3-7.2,1.6-2.2,2.7-4.8,3.2-7.6h5.5v6.7l15.6-9.6-15.6-9.5v6.7h-5.5c-.5-2.9-1.6-5.5-3.2-7.7,3.3-4.4,8.5-7.2,14.3-7.2,9.8,0,17.7,7.9,17.7,17.7"/>
    <path d="M29.8,21.6h6.4c-.5,2.8-1.6,5.4-3.2,7.6-1.7-2.2-2.8-4.8-3.2-7.6M33,8.2c-1.6,2.2-2.8,4.9-3.2,7.7h6.5c-.6-2.8-1.7-5.5-3.3-7.7"/>
    <path class="st0" d="M41.6,28.3v-6.7h-16.2c-1.1,2.6-3.7,4.4-6.7,4.4-4.1,0-7.4-3.3-7.4-7.4s3.3-7.4,7.4-7.4c3.1,0,5.7,1.9,6.8,4.6h16.2v-6.6l15.6,9.5-15.7,9.6Z"/>
  </g>
  <path class="st1" d="M163.8,28.1c0,.7-.5,1.2-1.2,1.2s-1.2-.5-1.2-1.2c0-.6.5-1.2,1.2-1.2.7.1,1.2.6,1.2,1.2ZM161.7,28.1c0,.5.4.9.9.9s.9-.4.9-.9-.4-.9-.9-.9-.9.4-.9.9ZM162.4,28.7h-.3v-1.2h.4c.2,0,.3,0,.4.1.1,0,.1.1.1.3,0,.1-.1.2-.2.3h0c.1,0,.2.1.2.3s.1.2.1.3h-.3s-.1-.1-.1-.3c0-.1-.1-.2-.2-.2h-.1v.4h0ZM162.4,28.1h.1c.1,0,.3,0,.3-.2,0-.1-.1-.2-.2-.2h-.1v.4h-.1Z"/>
</svg>