<?xml version="1.0" encoding="UTF-8"?>
<svg xmlns="http://www.w3.org/2000/svg" version="1.1" xmlns:inkscape="http://www.inkscape.org/namespaces/inkscape" xmlns:sodipodi="http://sodipodi.sourceforge.net/DTD/sodipodi-0.dtd" xmlns:svg="http://www.w3.org/2000/svg" viewBox="0 0 1230.91 482.38">
  <!-- Generator: Adobe Illustrator 29.7.1, SVG Export Plug-In . SVG Version: 2.1.1 Build 8)  -->
  <g id="svg2" inkscape:version="1.2.2 (732a01da63, 2022-12-09)">
    <sodipodi:namedview id="namedview4" bordercolor="#000000" borderopacity="0.25" inkscape:current-layer="g8" inkscape:cx="574.62687" inkscape:cy="-0.65671642" inkscape:deskcolor="#d1d1d1" inkscape:pagecheckerboard="0" inkscape:pageopacity="0.0" inkscape:showpageshadow="2" inkscape:window-height="991" inkscape:window-maximized="1" inkscape:window-width="1920" inkscape:window-x="-9" inkscape:window-y="-9" inkscape:zoom="0.76136364" pagecolor="#ffffff" showgrid="false"/>
    <g id="g8" inkscape:groupmode="layer" inkscape:label="2022-csx-annual-report">
      <g id="g34">
        <g id="g36">
          <g id="g42">
            <path id="path44" d="M1193.02,109.97h37.9V10.17h-204.23v99.8h34.19l-43.44,54.52h-1.84l-43.44-54.52h35.11V10.17h-204.22v99.8h37.88l104.43,129.38v1.85l-105.35,131.21h-48.98c18.49-68.37-9.23-130.3-93.33-167.26-44.35-19.4-102.58-31.41-102.58-71.16,0-21.24,16.64-36.97,37.9-36.97,27.72,0,45.28,26.81,45.28,65.62h102.58V10.17h-91.48v20.32h-1.85C678.29,22.17,648.73,0,606.22,0,538.76,0,474.06,56.37,474.06,134.92s58.23,121.98,142.31,156.17c24.96,10.17,54.52,20.33,54.52,51.75,0,25.89-20.33,41.59-42.5,41.59-35.12,0-51.76-39.73-51.76-82.23h-236.57c-18.48,38.81-60.99,62.84-103.5,62.84-67.46,0-119.2-60.99-119.2-126.61s51.75-121.98,119.2-121.98c34.19,0,72.09,14.79,96.11,46.2h119.2V10.17h-93.33v24.02h-1.85C318.82,12.01,278.16,0,234.72,0,108.12,0,0,102.56,0,241.2,0,372.41,96.11,482.38,242.11,482.38c101.65,0,176.5-53.6,217.18-157.1h1.84v146.93h99.8v-18.48h1.85c15.71,12.94,47.13,28.65,85.95,28.65,53.6,0,109.05-29.58,134.91-87.79v77.62h223.63v-99.8h-35.11l43.44-54.52h1.84l43.44,54.52h-34.19v99.8h204.23v-99.8h-36.97l-106.27-131.21v-1.85l105.34-129.38Z"/>
          </g>
        </g>
      </g>
    </g>
  </g>
</svg>