<?xml version="1.0" encoding="UTF-8"?>
<svg id="Layer_1" xmlns="http://www.w3.org/2000/svg" version="1.1" viewBox="0 0 333.81 81.55">
  <!-- Generator: Adobe Illustrator 29.7.1, SVG Export Plug-In . SVG Version: 2.1.1 Build 8)  -->
  <defs>
    <style>
      .st0 {
        fill: none;
      }
    </style>
  </defs>
  <g id="Isolation_area">
    <rect class="st0" x="23.95" y="-9.14" width="285.91" height="99.84"/>
  </g>
  <g id="logo">
    <g>
      <g>
        <path d="M112.28,24.49h-.16v21.39c0,.14-.08.28-.21.33-.57.22-1.4.31-2.54.31-1.07,0-1.93-.09-2.5-.31-.13-.05-.21-.19-.21-.33v-25.15c0-.17.11-.32.28-.35,1.14-.22,3-.35,4.79-.35,1.9,0,3.34.13,4.38.36.13.03.22.12.26.25l6.38,20.62h.16l6.06-20.61c.04-.13.13-.22.26-.25,1.04-.23,2.48-.36,4.38-.36,1.79,0,3.5.12,4.61.34.17.03.28.18.28.35v25.15c0,.14-.08.28-.21.33-.56.22-1.36.31-2.5.31-1.07,0-1.96-.09-2.54-.31-.13-.05-.21-.19-.21-.33v-21.39h-.16l-7.23,21.57c-.03.1-.11.19-.21.22-.61.21-1.5.31-2.8.31-1.15,0-2.1-.09-2.72-.31-.1-.04-.18-.12-.21-.22l-7.43-21.57ZM144.75,20.75c0-.15.08-.28.22-.33.63-.24,1.6-.39,2.86-.39s2.24.14,2.83.38c.13.05.21.19.21.33v25.06c0,.14-.08.28-.21.33-.59.24-1.54.38-2.83.38s-2.24-.15-2.86-.39c-.14-.05-.22-.19-.22-.33v-25.04ZM190.01,42.5c3.61,0,5.03-1.25,5.03-3.2,0-5.42-13.5-2.51-13.5-11.94,0-5.27,3.81-8.03,10.05-8.03,2.68,0,4.96.5,7.04,1.57.06.03.11.08.15.14.76,1.18,1.18,2.93,1.09,4.44,0,.27-.29.43-.52.31-2.12-1.08-4.75-1.81-7.31-1.81-3,0-4.34.99-4.34,2.69,0,5.08,13.42,2.39,13.42,11.94,0,6.48-4.9,8.62-11.02,8.62-2.95,0-5.74-.5-7.96-1.43-.07-.03-.13-.08-.17-.15-.82-1.28-1.18-3.2-1.09-4.7.02-.26.29-.42.52-.31,2.27,1.09,5.81,1.86,8.61,1.86ZM211.3,36.46c0,3.91,1.78,5.75,5.84,5.75,4.38,0,6.08-2.21,6.08-5.86v-15.61c0-.14.08-.28.21-.33.6-.24,1.56-.38,2.75-.38,1.29,0,2.23.14,2.8.38.13.05.2.19.2.32v15.25c0,7.04-3.69,11.24-12.32,11.24-7.94,0-11.67-3.57-11.67-10.28v-16.19c0-.15.08-.28.22-.33.63-.24,1.6-.39,2.86-.39s2.24.14,2.83.38c.13.05.21.19.21.33v15.72h-.01ZM261.77,20.75c0-.15.08-.28.22-.33.63-.24,1.6-.39,2.86-.39s2.24.14,2.83.38c.13.05.21.19.21.33v25.06c0,.14-.08.28-.21.33-.59.24-1.54.38-2.83.38s-2.24-.15-2.86-.39c-.14-.05-.22-.19-.22-.33v-25.04ZM281.58,42.5c3.61,0,5.03-1.25,5.03-3.2,0-5.42-13.5-2.51-13.5-11.94,0-5.27,3.81-8.03,10.05-8.03,2.68,0,4.96.5,7.04,1.57.06.03.11.08.15.14.76,1.18,1.18,2.93,1.09,4.44-.01.27-.29.43-.52.31-2.12-1.08-4.75-1.81-7.31-1.81-3,0-4.34.99-4.34,2.69,0,5.08,13.42,2.39,13.42,11.94,0,6.48-4.9,8.62-11.02,8.62-2.95,0-5.74-.5-7.96-1.43-.07-.03-.13-.08-.17-.15-.82-1.28-1.18-3.2-1.09-4.7.02-.26.29-.42.52-.31,2.27,1.09,5.81,1.86,8.61,1.86ZM327.69,20.75c0-.15.08-.28.22-.33.63-.24,1.6-.39,2.86-.39s2.24.14,2.83.38c.13.05.21.19.21.33v25.06c0,.14-.08.28-.21.33-.59.24-1.54.38-2.83.38s-2.24-.15-2.86-.39c-.14-.05-.22-.19-.22-.33v-25.04ZM163.87,25.07h-7.91c-.15,0-.29-.1-.34-.24-.19-.53-.34-1.38-.34-2.23s.15-1.67.34-2.19c.05-.14.19-.24.34-.24h21.94c.15,0,.29.1.34.24.19.52.34,1.34.34,2.19s-.15,1.7-.34,2.23c-.05.14-.19.24-.34.24h-7.91v20.73c0,.14-.08.28-.21.33-.59.24-1.54.38-2.83.38s-2.24-.15-2.86-.39c-.14-.05-.22-.19-.22-.33v-20.72h0ZM251.8,32.7c3.36.85,5.51,2.58,5.51,6.19,0,5.75-5.51,7.81-12.52,7.81-3.39,0-7.11-.14-9.74-.41-.18-.02-.32-.17-.32-.36v-25.12c0-.18.12-.33.3-.36,2.47-.42,5.55-.72,8.78-.72,6.97,0,12,1.95,12,7.15,0,2.87-1.58,4.9-4.01,5.53v.29h0ZM240.77,30.64h4.05c3,0,4.78-1,4.78-3.06,0-2.25-2.11-3.21-5.63-3.21-1.3,0-2.35.07-3.2.22v6.05ZM240.77,41.84c1.09.11,2.47.18,4.01.18,3.93,0,6.24-1.03,6.24-3.39s-2.35-3.39-6.16-3.39h-4.09v6.6ZM315.47,35.43h-12.2v10.37c0,.14-.08.28-.22.33-.62.24-1.56.39-2.82.39s-2.2-.15-2.82-.39c-.14-.05-.22-.19-.22-.33v-25.05c0-.15.08-.28.22-.33.62-.24,1.56-.39,2.82-.39s2.2.15,2.82.39c.14.05.22.19.22.33v9.86h12.2v-9.86c0-.15.08-.28.22-.33.62-.24,1.56-.39,2.82-.39s2.2.15,2.82.39c.14.05.22.19.22.33v25.05c0,.14-.08.28-.22.33-.62.24-1.56.39-2.82.39s-2.2-.15-2.82-.39c-.14-.05-.22-.19-.22-.33v-10.37Z"/>
        <path d="M158.21,67.33c0,9.25-5.39,14.22-13.7,14.22-8.84,0-13.74-4.68-13.74-14.22,0-8.58,5.76-13.67,13.74-13.67,8.19,0,13.7,4.72,13.7,13.67ZM144.51,76.69c4.82,0,7.38-3.35,7.38-9.36,0-5.53-2.92-8.84-7.38-8.84-4.82,0-7.42,3.24-7.42,8.84,0,6,2.72,9.36,7.42,9.36ZM179.06,59.26l-4.85,21.07c-.03.14-.13.24-.27.27-.93.19-2.31.32-4,.32s-3.03-.13-3.96-.32c-.14-.03-.24-.13-.27-.27l-5.96-25.18c-.04-.17.05-.35.21-.42.56-.24,1.46-.37,2.76-.37s2.3.13,2.97.44c.1.05.17.14.19.25l4.34,20.83h.16l4.62-21c.03-.13.13-.24.26-.27.93-.22,2.31-.35,4-.35s3.02.13,3.96.35c.13.03.23.14.26.27l4.57,21.01h.16l4.42-20.9c.02-.11.1-.21.2-.26.6-.24,1.61-.37,2.79-.37,1.25,0,2.08.1,2.62.31.17.06.27.25.22.42l-6.08,25.24c-.03.13-.13.24-.27.27-.93.19-2.27.32-3.96.32s-3.1-.13-4.04-.32c-.14-.03-.24-.14-.27-.28l-4.66-21.07h-.12ZM221.62,75.95c.15,0,.29.1.34.24.18.49.3,1.28.3,2.12s-.12,1.66-.3,2.15c-.05.14-.19.24-.34.24h-18.82c-.2,0-.36-.16-.36-.36v-25.47c0-.2.16-.36.36-.36h18.5c.15,0,.29.09.34.24.18.49.3,1.28.3,2.12s-.12,1.63-.3,2.12c-.05.14-.19.24-.34.24h-12.82v5.93h11.8c.14,0,.28.08.33.21.19.5.31,1.25.31,2.11s-.12,1.6-.31,2.11c-.05.13-.19.22-.33.22h-11.8v6.15h13.14ZM106.64,54.98c0-.17.12-.32.29-.35,2.15-.41,5.61-.64,8.48-.64,6.9,0,12.88,1.65,12.88,9.02,0,7.83-5.3,9.76-15.52,9.76v7.37c0,.14-.08.28-.21.33-.59.24-1.54.38-2.83.38s-2.24-.15-2.86-.39c-.14-.05-.22-.19-.22-.33v-25.15h-.01ZM112.72,67.88c5.25,0,9.36.02,9.36-4.62,0-3.42-2.69-4.4-6.58-4.4-.97,0-1.89.07-2.78.22v8.8ZM232.82,67.05v-7.97c.89-.15,1.81-.22,2.78-.22,3.9,0,6.44.63,6.44,4.05-.01,3.81-3.25,4.66-9.22,4.14ZM249.99,79.77l-6.16-9.27c2.95-1.48,4.41-4.05,4.41-7.84,0-7.13-5.84-8.68-12.74-8.68-2.71,0-6.55.24-8.48.64-.15.03-.29.19-.29.35v25.15c0,.14.08.27.21.33.63.24,1.6.39,2.87.39s2.25-.15,2.84-.39c.13-.06.2-.19.2-.33v-8.17c1.82.1,3.48.1,4.98-.02l5.58,8.54c.04.06.11.11.18.13.84.21,1.97.29,3.57.17,1.17-.08,2.09-.25,2.69-.48.21-.05.28-.3.14-.52Z"/>
      </g>
      <g>
        <polygon points="31.06 26.9 46.59 53.8 62.13 26.9 46.59 0 31.06 26.9"/>
        <polygon points="31.06 80.7 46.59 53.8 15.53 53.8 0 80.7 31.06 80.7"/>
        <polygon points="77.66 53.8 46.59 53.8 62.13 80.7 93.19 80.7 77.66 53.8"/>
      </g>
    </g>
  </g>
</svg>