<?xml version="1.0" encoding="UTF-8"?>
<svg id="Layer_1" xmlns="http://www.w3.org/2000/svg" version="1.1" viewBox="0 0 900 500">
  <!-- Generator: Adobe Illustrator 29.7.1, SVG Export Plug-In . SVG Version: 2.1.1 Build 8)  -->
  <path d="M18.84,182.86c24.27-.47,51.19-.07,75.5.36,1.62,35.95,23.6,84.67,47.63,111.47,17.32,19.32,51.05,39.34,76.55,46.42,17.16-4.13,38.31-15.67,52.94-25.56,34.79-23.53,55.89-62.35,67.04-101.98,2.66-9.47,4.1-19.71,5.8-29.49l75.87.15c-1.26,19.55-3.19,37.28-8.28,56.07-16.56,61.51-65.78,104.51-127.34,117.76-4.15.89-28.42,4.41-29.44,5.5,53.86,19.39,84,61.07,145.42,32.76.36,7.16.29,17.9.07,25.05-17.96,14.49-47,24.42-70.12,21.83-45.61-5.11-82.61-38.91-129.82-36.56-30.88,1.53-51.47,9.57-72.32,32.63-.11-7.08-1.05-23.34,1.7-29.31,10.51-22.89,31.75-37.42,53.8-47.26-35.31-1.89-80.33-20.06-106.81-43.13-41.28-35.96-54.74-84.07-58.19-136.71Z"/>
  <path d="M212.11,55.53c10.8-.92,17.68-.45,27.75,3.4,1.43,3.98,3.07,12.51,4.04,17l5.82,26.84c14.07,0,29.42-.14,43.42.46.14,9.56-.04,19.7-.05,29.31,5.17-.42,12.1-.19,17.4-.16,0,8.92.02,17.76.22,26.68l16.67-.02c-.03,29.68-8.93,58.84-20.32,85.93-15.76,37.51-43.45,63.54-81.06,78.74-2.75,1.15-4.06,1.57-6.9,2.34-15.76-3.86-43.64-22.86-55.05-33.92-28.74-27.84-43.25-70.39-49.75-109.12-1.25-7.48-1.23-16.81-1.36-24.48h17.2c.05-8.92-.01-17.91-.12-26.82,5.49.14,11.54.03,17.07.04.32-9.36-.1-19.91-.03-29.49l43.04.18c.29-1.87.73-4.01,1.17-5.85,2.92-12.28,4.81-25.34,8.2-37.47,4.47-2.31,7.74-3.01,12.63-3.59Z"/>
  <path d="M566.15,193.93c11.87-.76,28.37,2.08,38.43,8.71,22.16,14.6,22.09,40.98,22.01,64.41l-.04,27.39v29.99c-.03,23,.73,35.46-12.2,55.16,11.62,13.31,11.24,24.47,11.92,41.33-9.94-.17-25.42.4-35.83-.21-.34-.3-.63-.56-.87-.77-1.96-26.27-11.55-20.33-32.71-23.59-8.03-1.24-17.65-5.29-23.88-10.65-18.2-15.68-17.93-38.52-17.81-60.33l.19-32.02.08-29.8c.03-9.3-.28-18.34,1.45-27.56,5.06-27.07,22.96-39.58,49.26-42.04ZM575.63,363.93c4.81-1.49,9.04-3.83,11.43-8.49,1.66-3.24,2.22-7.6,2.54-11.2.97-11.1.23-22.55.31-33.69.11-15.66,2.21-61.19-2.07-73.62-1.12-3.26-4.29-6.19-7.33-7.68-4.44-2.17-9.38-2.02-14.17-1.53-4.88,1.39-8.79,3.36-11.33,7.99-2.1,3.85-2.49,8.81-2.85,13.11-1.2,14.51-.45,29.5-.48,44.08-.03,13.58-1.64,48.51,1.74,59.55,1.32,4.3,4.01,8.25,8.09,10.36,4.42,2.28,9.38,1.92,14.12,1.13Z"/>
  <path d="M703.09,194.4c23.33-1.06,43.59,7.79,51.58,30.61,4.27,12.2,4.2,22.83,4.53,35.5-11.42-.12-22.94-.03-34.37-.01-.1-7.73.47-22.59-5.44-27.66-14.26-12.22-31.18-2.77-31.39,15.04-.4,34.27,39.04,32.14,57.56,52.84,10.74,11.31,14.3,26.62,13.77,42.18-1.31,38.55-23.12,56.36-60.03,55.43-26.74-1.66-43.77-15.65-47.96-42.65-1.64-10.59-1.15-19.88-1.3-30.46l34.59.07c-.2,9.4-1.76,27.36,5.49,34.42,6.94,6.76,21.01,7.21,27.49-.74,4.22-5.17,5.6-10.28,5.08-16.95-1.65-30.15-37.17-30.58-54.89-47.3-11.11-9.77-15.42-22.18-16.28-36.78-2.12-36.24,13.53-61.49,51.56-63.53Z"/>
  <path d="M786.12,197.25l36.52.03-.59,135.54c-.04,7.86-.29,16.14.49,23.9.34,3.44,4.48,5.28,7.45,5.48,6,.42,12.21.31,18.2.33l32.45.14v33.13s-46.72-.04-46.72-.04c-9.65-.01-20.94.44-30.31-1.27-8.17-1.49-16.36-10.59-17.48-18.71-1.06-7.74-.82-15.52-.79-23.32l.19-32.32c.25-40.35,1.05-82.72.6-122.89Z"/>
</svg>